<?xml version="1.0" encoding="UTF-8"?>
<svg version="1.1" xmlns="http://www.w3.org/2000/svg" width="1254" height="1254">
<path d="M0 0 C413.82 0 827.64 0 1254 0 C1254 413.82 1254 827.64 1254 1254 C840.18 1254 426.36 1254 0 1254 C0 840.18 0 426.36 0 0 Z " fill="#010819" transform="translate(0,0)"/>
<path d="M0 0 C2.82494794 1.22823823 4.42171693 2.12187064 6.1160984 4.69480801 C7.29224422 7.7621652 7.25818189 10.3472503 7.26742554 13.6330719 C7.27195665 14.29843096 7.27648776 14.96379002 7.28115618 15.64931148 C7.29381084 17.87768787 7.29217912 20.10582018 7.29052734 22.33422852 C7.29651222 23.93271702 7.30331767 25.53120264 7.31088257 27.12968445 C7.32856089 31.47303829 7.33323891 35.81631334 7.33451414 40.15969968 C7.33593606 42.87615289 7.34020658 45.5925861 7.34550858 48.30903435 C7.3640198 57.79465886 7.37217843 67.28022716 7.37060547 76.76586914 C7.36940601 85.59199868 7.39046694 94.41788291 7.4220928 103.24395043 C7.44830623 110.83141301 7.45897054 118.41879577 7.45769465 126.00630325 C7.4571862 130.53332285 7.46280328 135.06012478 7.48405075 139.58709908 C7.50351691 143.85125272 7.50350083 148.11498311 7.48901749 152.3791523 C7.48693814 153.93710961 7.49157773 155.49509398 7.5037384 157.05300522 C7.57933187 167.41568081 7.31821154 177.71404794 -0.125 185.6875 C-1.3904692 186.82159634 -2.68425854 187.92463438 -4 189 C-4.7321875 189.59941406 -5.464375 190.19882812 -6.21875 190.81640625 C-7.86952882 192.14292494 -9.5288837 193.45882065 -11.1953125 194.765625 C-14.35298245 197.28120608 -17.42873306 199.88032388 -20.5 202.5 C-24.43448731 205.85068247 -28.39552274 209.15357451 -32.4375 212.375 C-33.23285156 213.01050781 -34.02820313 213.64601563 -34.84765625 214.30078125 C-36.15632105 215.33393767 -37.47437769 216.35552713 -38.80859375 217.35546875 C-44.15174293 221.47275827 -46.98363881 226.31493273 -48 233 C-48.08864656 234.95136314 -48.12655223 236.90536446 -48.12749195 238.85873985 C-48.1304996 240.03828251 -48.13350725 241.21782517 -48.13660604 242.43311155 C-48.13398048 244.37097734 -48.13398048 244.37097734 -48.13130188 246.34799194 C-48.13300453 247.73737669 -48.13515445 249.12676096 -48.13771313 250.51614439 C-48.1423071 253.53654648 -48.14373159 256.55692808 -48.14274788 259.57733345 C-48.14115425 264.49179514 -48.14635902 269.40623652 -48.15237427 274.32069397 C-48.16048549 281.4557024 -48.16543046 288.59070726 -48.16866493 295.72571945 C-48.17416252 307.0025152 -48.19106059 318.27928072 -48.21000671 329.55606079 C-48.21636333 333.41413684 -48.22267177 337.27221296 -48.22898388 341.13028908 C-48.23056764 342.09444817 -48.2321514 343.05860726 -48.23378316 344.05198329 C-48.25171841 355.02618982 -48.26794595 366.00039847 -48.28295898 376.97460938 C-48.28433486 377.97778287 -48.28571073 378.98095637 -48.28712829 380.01452906 C-48.30906474 396.27602807 -48.31981631 412.53751928 -48.32732973 428.79903047 C-48.33539853 445.49293073 -48.35868021 462.18676419 -48.3952834 478.88062632 C-48.41731641 489.17862778 -48.42697061 499.47649193 -48.42078307 509.77451576 C-48.41761038 516.83048706 -48.42892601 523.886341 -48.45167748 530.94227599 C-48.46435415 535.01404744 -48.47050444 539.08555749 -48.45926094 543.1573391 C-48.44909798 546.88568046 -48.45732973 550.61351417 -48.4801239 554.34179552 C-48.48748626 556.3276596 -48.475186 558.31356661 -48.46216375 560.29940164 C-48.52402425 567.06613348 -48.84412254 571.54504524 -53 577 C-54.97827148 578.52905273 -54.97827148 578.52905273 -57.18359375 579.49609375 C-58.06901855 579.89296387 -58.95444336 580.28983398 -59.86669922 580.69873047 C-61.41768311 581.34285889 -61.41768311 581.34285889 -63 582 C-64.21316895 582.51578613 -65.42633789 583.03157227 -66.67626953 583.56298828 C-71.12223798 585.43599018 -75.59206288 587.24887587 -80.0625 589.0625 C-81.76178228 589.75517845 -83.46091574 590.44822211 -85.15991211 591.14160156 C-88.82065159 592.63494834 -92.48229859 594.12604163 -96.14453125 595.61572266 C-102.23495011 598.09412772 -108.32082142 600.58359069 -114.40625 603.07421875 C-123.76853652 606.90596931 -133.13647236 610.72362441 -142.50758362 614.53373718 C-147.76538297 616.67393176 -153.01547175 618.83092244 -158.25450134 621.0166626 C-161.03814072 622.17633779 -163.82636808 623.32465725 -166.61569214 624.47058105 C-168.42684006 625.21973836 -170.23128878 625.98502959 -172.03540039 626.75097656 C-178.32856627 629.32409801 -183.18553622 630.77684887 -190 630 C-192.75569447 627.81840855 -194.43588747 626.12822506 -196 623 C-196.10142986 620.22587129 -196.1410578 617.47663081 -196.13701439 614.70207024 C-196.13966622 613.82927012 -196.14231804 612.95647001 -196.14505023 612.05722141 C-196.1527772 609.10013854 -196.15330369 606.14309696 -196.15390015 603.18600464 C-196.15791254 601.05745746 -196.16235038 598.92891105 -196.1671797 596.80036557 C-196.17917604 590.92571607 -196.18480073 585.0510748 -196.18936086 579.17641544 C-196.1953054 572.85039795 -196.20691811 566.52439035 -196.21765137 560.19837952 C-196.24104114 545.63094917 -196.25558683 531.06351749 -196.26788078 516.49607413 C-196.27213415 511.456786 -196.27669985 506.41749822 -196.2814641 501.37821054 C-196.30672371 474.5937924 -196.3287756 447.80937365 -196.34119225 421.02494621 C-196.34411366 414.81741204 -196.34708116 408.60987788 -196.35009766 402.40234375 C-196.35065402 401.24551101 -196.35065402 401.24551101 -196.35122162 400.06530791 C-196.36337778 375.05912229 -196.39432196 350.05300705 -196.43601918 325.04685449 C-196.47879546 299.34676012 -196.50543185 273.64670293 -196.51066696 247.946572 C-196.51140742 244.31746077 -196.51231811 240.6883496 -196.51332474 237.05923843 C-196.51351535 236.34498202 -196.51370597 235.63072561 -196.51390236 234.89482506 C-196.51741757 223.39443896 -196.53772311 211.89414092 -196.56412137 200.39378717 C-196.59025258 188.83555646 -196.59758445 177.27746573 -196.58702008 165.71920256 C-196.58182168 159.45596657 -196.58479724 153.19301086 -196.60948563 146.92981529 C-196.63189149 141.19794158 -196.63130544 135.4665509 -196.61228175 129.73466922 C-196.60946959 127.65922369 -196.61514735 125.583746 -196.63009469 123.50835238 C-196.64915921 120.68930383 -196.63743988 117.87198511 -196.61803246 115.05297661 C-196.63730629 113.84118842 -196.63730629 113.84118842 -196.65696949 112.60491967 C-196.56615332 106.61085531 -194.67564867 102.70403582 -191 98 C-186.02402586 93.23948041 -179.18401362 90.51605005 -173.0480957 87.51464844 C-166.40415309 84.25158931 -159.88737667 80.76721689 -153.375 77.25 C-152.25416016 76.64478516 -151.13332031 76.03957031 -149.97851562 75.41601562 C-144.77314873 72.59931048 -139.57457982 69.77069507 -134.38671875 66.921875 C-123.34191778 60.85861567 -112.21960142 54.97701045 -101.01879883 49.20654297 C-94.04297649 45.60404279 -87.12419737 41.91743844 -80.25 38.125 C-68.10209489 31.4299831 -55.75530668 25.12809128 -43.41885376 18.79034424 C-38.01491634 16.01224952 -32.62702179 13.20477912 -27.25 10.375 C-26.49976563 9.98248047 -25.74953125 9.58996094 -24.9765625 9.18554688 C-20.85448453 7.01900681 -16.83074311 4.73033382 -12.8125 2.375 C-8.19339566 -0.15297493 -5.22674341 -0.81104639 0 0 Z " fill="#00C5F1" transform="translate(660,222)"/>
<path d="M0 0 C11.9263063 0.30400389 20.43215447 6.62143631 30 13 C31.4843375 13.97922352 32.9687119 14.95839109 34.453125 15.9375 C37.4549255 17.92662088 40.44656172 19.93018688 43.43359375 21.94140625 C47.90435583 24.94631353 52.41513836 27.88601611 56.9375 30.8125 C69.98507898 39.26619218 82.9647917 47.82321711 95.95307922 56.36756897 C100.69722728 59.48780387 105.44416384 62.60374329 110.19352722 65.71603394 C113.3338761 67.77394317 116.47345025 69.83303282 119.61300659 71.89215088 C121.0953153 72.86387792 122.57798858 73.83504912 124.06106567 74.80560303 C128.71852151 77.85377236 133.36537756 80.9172237 138 84 C138.62841797 84.41634705 139.25683594 84.83269409 139.90429688 85.26165771 C141.71034785 86.46276871 143.50859493 87.67468749 145.3046875 88.890625 C146.83971924 89.92364746 146.83971924 89.92364746 148.40576172 90.97753906 C152.96377413 94.53095284 155.2042407 98.61272209 157 104 C157.09307002 105.59900437 157.12910992 107.20162526 157.13142776 108.80333424 C157.13526891 109.79837493 157.13911005 110.79341562 157.1430676 111.81860906 C157.14220112 112.91469808 157.14133463 114.0107871 157.14044189 115.14009094 C157.14341302 116.30223324 157.14638414 117.46437555 157.1494453 118.66173428 C157.15663259 121.8928296 157.15930516 125.12389255 157.16004276 128.35499465 C157.1618924 131.83771288 157.16943927 135.32041955 157.17617798 138.8031311 C157.18976542 146.42088037 157.19578662 154.03862438 157.20018864 161.65638375 C157.20295029 166.41188115 157.2071875 171.16737652 157.21169281 175.92287254 C157.22388587 189.08647312 157.23418521 202.25007207 157.2375679 215.41367817 C157.23789725 216.67765988 157.23789725 216.67765988 157.23823325 217.96717657 C157.23845153 218.81185969 157.23866981 219.65654281 157.2388947 220.52682239 C157.23933817 222.23850334 157.23978473 223.95018429 157.24023438 225.66186523 C157.24056652 226.9354475 157.24056652 226.9354475 157.24090537 228.2347587 C157.24485395 241.99454061 157.26230961 255.75426957 157.2855939 269.51403103 C157.30930023 283.63705208 157.32176942 297.76004655 157.32293582 311.88308781 C157.32385297 319.81424701 157.32961536 327.74533722 157.34775543 335.67647743 C157.36314671 342.42965093 157.36828265 349.18273413 157.36001733 355.93592183 C157.35610738 359.38173245 157.35705702 362.82736118 157.37107468 366.27314949 C157.38371977 370.00857686 157.37795743 373.7435345 157.36749268 377.47895813 C157.37957728 379.11305341 157.37957728 379.11305341 157.39190602 380.78016073 C157.34948581 387.2358066 156.75657305 391.81933879 152.375 396.875 C147.39646765 399.23325217 142.75461914 398.57540769 137.68115234 396.91162109 C134.32979426 395.60717998 131.03231142 394.18099841 127.74032593 392.73416138 C124.61472303 391.36110328 121.47369691 390.02500709 118.3334198 388.68592834 C116.62254733 387.95604584 114.91245169 387.22434013 113.20307922 386.49095154 C103.45716498 382.31602806 93.63751442 378.32463222 83.81509399 374.3338623 C80.68780407 373.0626236 77.56182919 371.78820566 74.4362793 370.51269531 C65.37243834 366.8141731 56.30633849 363.12146573 47.23167419 359.4495697 C43.60701481 357.98178434 39.98441986 356.50895185 36.36221313 355.03512573 C34.68138824 354.35274893 32.99958359 353.6727798 31.31674194 352.99539185 C29.0068399 352.06545556 26.70038784 351.12741354 24.39453125 350.1875 C23.39487839 349.78880959 23.39487839 349.78880959 22.37503052 349.38206482 C16.02273728 346.77383947 11.14014148 344.27112874 8 338 C7.62625384 335.43780529 7.62625384 335.43780529 7.6280632 332.65663338 C7.61817844 331.05974747 7.61817844 331.05974747 7.60809398 329.43060124 C7.62017858 327.68533738 7.62017858 327.68533738 7.63250732 325.90481567 C7.62923848 324.66408259 7.62596964 323.42334951 7.62260175 322.14501846 C7.61657674 318.70356582 7.62401825 315.26261781 7.63714409 311.82121634 C7.64804096 308.10879187 7.64162924 304.39639235 7.63735962 300.68395996 C7.63172433 293.41174572 7.64204512 286.13963687 7.65764758 278.8674406 C7.67518228 270.39858989 7.67660676 261.92975965 7.67726317 253.46089362 C7.6789516 238.34874355 7.69477004 223.23664147 7.71875 208.12451172 C7.74200002 193.46174725 7.75617357 178.79901322 7.75976562 164.13623047 C7.75998839 163.23345525 7.76021116 162.33068004 7.76044068 161.400548 C7.76088328 159.58187529 7.7613253 157.76320259 7.76176675 155.94452988 C7.76198631 155.04737972 7.76220588 154.15022955 7.7624321 153.22589302 C7.76264808 152.3310031 7.76286407 151.43611318 7.7630866 150.51410539 C7.76678949 136.54070036 7.77814981 122.56730023 7.7905625 108.5939006 C7.79499496 103.53031507 7.79843442 98.46673001 7.80118462 93.4031433 C7.80562108 85.36919473 7.81340794 77.33526427 7.82795903 69.30132712 C7.83455674 65.63063897 7.83963044 61.95996672 7.84041977 58.28927231 C7.84135383 54.30921562 7.85005119 50.32919756 7.85955811 46.34915161 C7.85825838 44.61057992 7.85825838 44.61057992 7.8569324 42.83688557 C7.87632462 37.43591421 8.13637333 32.32725114 9 27 C8.78090388 23.84408259 8.78090388 23.84408259 8.1875 20.8125 C8.01605469 19.80832031 7.84460938 18.80414063 7.66796875 17.76953125 C7.05356261 15.22208124 6.17539691 13.31607745 5 11 C5 10.01 5 9.02 5 8 C4.34 8 3.68 8 3 8 C0.95830515 5.09451118 0 3.59857954 0 0 Z " fill="#124FDB" transform="translate(655,454)"/>
<path d="M0 0 C76.56 0 153.12 0 232 0 C232 0.33 232 0.66 232 1 C230.80890625 1.08636719 229.6178125 1.17273438 228.390625 1.26171875 C182.81475106 4.89736192 138.93291181 18.4349113 102 46 C101.39075684 46.45375 100.78151367 46.9075 100.15380859 47.375 C91.65595344 53.76143184 83.66072374 60.6296769 76 68 C75.37303223 68.59973633 74.74606445 69.19947266 74.10009766 69.81738281 C64.90495277 78.65878271 56.54832444 87.71861076 49 98 C48.15239563 99.1289452 47.30473934 100.25785143 46.45703125 101.38671875 C19.12791611 138.23905655 3.89432435 182.33953828 1 228 C0.67 228 0.34 228 0 228 C0 152.76 0 77.52 0 0 Z " fill="#000000" transform="translate(0,0)"/>
<path d="M0 0 C75.57 0 151.14 0 229 0 C229 74.25 229 148.5 229 225 C228.67 225 228.34 225 228 225 C227.84180786 223.84552368 227.84180786 223.84552368 227.68041992 222.66772461 C226.50048703 214.10472815 225.26756579 205.5504438 224 197 C223.88817383 196.22011719 223.77634766 195.44023437 223.66113281 194.63671875 C220.73279737 174.78568689 212.85027481 154.92455371 204 137 C203.64969727 136.2869873 203.29939453 135.57397461 202.93847656 134.83935547 C193.26451631 115.37409582 180.70971896 96.9514949 165.8828125 81.03515625 C164.31538562 79.34090437 162.86510793 77.62300939 161.4375 75.8125 C158.92039237 72.90814505 156.26296731 70.51345548 153.33984375 68.03125 C150.65290299 65.69868039 148.08689317 63.25548188 145.5 60.8125 C108.10398136 26.16856931 56.03323523 3.99010666 5.02734375 2.30859375 C2 2 2 2 0 0 Z " fill="#000000" transform="translate(1025,0)"/>
<path d="M0 0 C0.33 0 0.66 0 1 0 C1 75.24 1 150.48 1 228 C-72.92 228 -146.84 228 -223 228 C-223 227.67 -223 227.34 -223 227 C-221.69933594 226.86464844 -220.39867187 226.72929688 -219.05859375 226.58984375 C-171.15046685 221.1924878 -127.63673212 204.5177744 -90 174 C-89.38141113 173.49855469 -88.76282227 172.99710938 -88.12548828 172.48046875 C-75.19063766 161.89518749 -63.16426072 150.29685254 -53 137 C-52.5059668 136.37125977 -52.01193359 135.74251953 -51.50292969 135.09472656 C-43.88553132 125.37629055 -37.17816347 115.31962991 -31 104.625 C-30.38946777 103.56853271 -29.77893555 102.51206543 -29.14990234 101.42358398 C-23.3950363 91.26034806 -18.34989287 80.80837703 -14.5625 69.75 C-14.27737549 68.9235498 -13.99225098 68.09709961 -13.69848633 67.24560547 C-8.50420586 51.87984269 -3.50871263 36.20534858 -2 20 C-1.81776225 18.23814046 -1.63404436 16.47643369 -1.44921875 14.71484375 C-0.94135923 9.81209544 -0.4640497 4.90707874 0 0 Z " fill="#000000" transform="translate(1253,1026)"/>
<path d="M0 0 C0.33 0 0.66 0 1 0 C1.06469482 0.69746338 1.12938965 1.39492676 1.19604492 2.11352539 C7.34332733 66.60986264 34.86535459 127.82169224 85.5625 169.75 C87.36855971 171.17486807 89.18121614 172.59140994 91 174 C91.98097656 174.78632812 92.96195312 175.57265625 93.97265625 176.3828125 C108.86318007 188.23302205 124.99408554 197.52678639 142 206 C143.04929688 206.52464844 144.09859375 207.04929687 145.1796875 207.58984375 C147.75900304 208.8167826 150.3504241 209.93333692 153 211 C154.12664062 211.45503906 155.25328125 211.91007812 156.4140625 212.37890625 C178.39315599 220.85284101 201.61580428 225.00563126 225 227 C225 227.33 225 227.66 225 228 C150.75 228 76.5 228 0 228 C0 152.76 0 77.52 0 0 Z " fill="#000000" transform="translate(0,1026)"/>
<path d="M0 0 C59.6446281 0 59.6446281 0 71.2109375 9.890625 C77.60180486 16.73990901 79.23202099 22.79322375 79.375 32.0625 C79.38909912 32.73539063 79.40319824 33.40828125 79.41772461 34.1015625 C79.34629894 41.49366769 76.45784876 47.18003079 72 53 C63.82816229 61 63.82816229 61 58 61 C59.95570449 63.87679608 61.9146863 66.75134286 63.875 69.625 C64.45983154 70.48279053 65.04466309 71.34058105 65.6472168 72.22436523 C69.70427092 78.15619903 73.83216704 84.0289582 78.10302734 89.80908203 C81 93.78529523 81 93.78529523 81 96 C60.89298377 98.5167044 60.89298377 98.5167044 54.94482422 94.67138672 C50.91768479 90.47119206 48.50132843 85.19429538 46 80 C41.66523252 70.53479692 41.66523252 70.53479692 34.00439453 64.26171875 C29.1397497 63.33243154 25.07767315 63.6987821 20 64 C20 74.56 20 85.12 20 96 C13.4 96 6.8 96 0 96 C0 64.32 0 32.64 0 0 Z " fill="#F2F4F7" transform="translate(851,918)"/>
<path d="M0 0 C6.93 0 13.86 0 21 0 C27.41430344 7.04178965 27.41430344 7.04178965 28.94921875 10.19921875 C30.78370161 13.7181622 32.96759315 16.60571315 35.5625 19.625 C39.33626765 24.15483608 42.88634128 28.80846448 46.3984375 33.54296875 C50.21868795 38.65757029 54.18027817 43.66519986 58.12768555 48.68188477 C58.98680542 49.77907837 58.98680542 49.77907837 59.86328125 50.8984375 C60.37157471 51.54474121 60.87986816 52.19104492 61.40356445 52.85693359 C63.37113847 55.49821892 65.17304493 58.25956739 67 61 C67.33 40.87 67.66 20.74 68 0 C74.93 0 81.86 0 89 0 C89 32.01 89 64.02 89 97 C82.4 97 75.8 97 69 97 C61.73205446 89.73205446 61.73205446 89.73205446 59.7265625 86.3515625 C57.02542776 81.98156134 54.0007882 77.94729133 50.875 73.875 C49.87154511 72.53285686 48.87021104 71.18912525 47.87109375 69.84375 C41.28368315 61.00477875 34.49422827 52.32091723 27.66577148 43.66748047 C25.40672608 40.80298244 23.18928332 37.91904442 21 35 C20.67 55.13 20.34 75.26 20 96 C13.4 96 6.8 96 0 96 C0 64.32 0 32.64 0 0 Z " fill="#F3F5F7" transform="translate(266,918)"/>
<path d="M0 0 C6.93 0 13.86 0 21 0 C25.30648236 4.30648236 27.22865678 6.88764636 30 12 C31.59406506 14.16507344 33.20074518 16.27598708 34.875 18.375 C35.71755079 19.46506133 36.558682 20.5562213 37.3984375 21.6484375 C40.53776488 25.70171614 43.71071272 29.72841058 46.88305664 33.75585938 C50.87920961 38.83402366 54.83584053 43.94154376 58.76171875 49.07421875 C60.15395308 50.89408527 61.55145137 52.70995236 62.95703125 54.51953125 C63.50746094 55.23496094 64.05789063 55.95039062 64.625 56.6875 C65.09164062 57.28949219 65.55828125 57.89148438 66.0390625 58.51171875 C67 60 67 60 67 62 C67.66 62 68.32 62 69 62 C69 41.54 69 21.08 69 0 C75.6 0 82.2 0 89 0 C89 31.68 89 63.36 89 96 C68 96 68 96 62.80078125 91.86328125 C60.97314453 89.19335938 60.97314453 89.19335938 59.3125 86.3125 C58.02480878 84.37104785 56.73704855 82.42964148 55.44921875 80.48828125 C54.85931152 79.54162598 54.2694043 78.5949707 53.66162109 77.61962891 C51.51677324 74.23816881 49.12378019 71.12310244 46.625 68 C45.85414063 66.9996875 45.08328125 65.999375 44.2890625 64.96875 C43.53367187 63.9890625 42.77828125 63.009375 42 62 C40.3327545 59.8337784 38.66641746 57.66685861 37 55.5 C35.35 53.355 33.7 51.21 32 49 C28.7 44.71 25.4 40.42 22 36 C21.67 55.8 21.34 75.6 21 96 C14.07 96 7.14 96 0 96 C0 64.32 0 32.64 0 0 Z " fill="#F2F4F7" transform="translate(621,918)"/>
<path d="M0 0 C11.859375 -0.020625 23.71875 -0.04125 35.9375 -0.0625 C39.68730225 -0.071604 43.43710449 -0.08070801 47.30053711 -0.09008789 C51.86633301 -0.09460449 51.86633301 -0.09460449 54.00123596 -0.09544373 C55.4978617 -0.09698308 56.99448617 -0.10050784 58.49110413 -0.10557556 C60.75312467 -0.11285459 63.01506918 -0.11390737 65.27709961 -0.11352539 C66.55395126 -0.115746 67.83080292 -0.11796661 69.14634705 -0.12025452 C72 0 72 0 73 1 C73 6.94 73 12.88 73 19 C55.84 19 38.68 19 21 19 C21 25.6 21 32.2 21 39 C35.85 39 50.7 39 66 39 C66 44.94 66 50.88 66 57 C51.15 57 36.3 57 21 57 C21 63.93 21 70.86 21 78 C38.16 78 55.32 78 73 78 C73 84.27 73 90.54 73 97 C48.91 97 24.82 97 0 97 C0 64.99 0 32.98 0 0 Z " fill="#EEF0F3" transform="translate(514,918)"/>
<path d="M0 0 C7.59 0 15.18 0 23 0 C29.7451015 15.92157679 36.41693396 31.87100202 42.871521 47.91293335 C43.49837388 49.46981928 44.12699348 51.02599504 44.75738525 52.58145142 C45.64177093 54.76574189 46.51917957 56.95270121 47.39453125 59.140625 C47.65952927 59.79240219 47.92452728 60.44417938 48.19755554 61.1157074 C49.3104851 63.91925912 50 65.95050469 50 69 C50.66 69 51.32 69 52 69 C52.53947266 67.28490234 52.53947266 67.28490234 53.08984375 65.53515625 C55.58849146 58.04797518 58.61679846 50.75691228 61.5625 43.4375 C62.18704598 41.88046622 62.81155742 40.32341858 63.43603516 38.76635742 C68.51220544 26.12984449 73.72251046 13.55402815 79 1 C86.59 1 94.18 1 102 1 C97.17515832 13.20128233 92.11758084 25.29398408 87 37.375 C86.16152011 39.35713502 85.32314237 41.33931325 84.48486328 43.3215332 C82.38987949 48.27421266 80.29301689 53.22609395 78.19543457 58.17767334 C77.05269745 60.87558548 75.91050872 63.57372897 74.76855469 66.27197266 C73.10825028 70.1948703 71.4471667 74.11743666 69.78515625 78.03961182 C69.18117019 79.46496546 68.57732769 80.89037994 67.97363281 82.31585693 C67.14716849 84.26685184 66.31983258 86.2174745 65.4921875 88.16796875 C65.03183105 89.25360107 64.57147461 90.3392334 64.09716797 91.45776367 C63.4363573 92.9889211 62.74580343 94.50839313 62 96 C54.74 96 47.48 96 40 96 C36.4195327 88.23482138 33.05465153 80.41157614 29.8125 72.5 C28.76632517 69.96194773 27.71955083 67.42415104 26.671875 64.88671875 C26.39021988 64.20425583 26.10856476 63.52179291 25.81837463 62.81864929 C22.15056371 53.93563338 18.46286917 45.06092375 14.76254272 36.19140625 C13.96891847 34.28749917 13.17659912 32.38304758 12.38565063 30.47802734 C7.03894695 17.41413177 7.03894695 17.41413177 0.79272461 4.76635742 C0 3 0 3 0 0 Z " fill="#F4F6F8" transform="translate(383,918)"/>
<path d="M0 0 C0.87454834 0.00523682 1.74909668 0.01047363 2.65014648 0.01586914 C3.59438477 0.0190918 4.53862305 0.02231445 5.51147461 0.02563477 C6.50469727 0.03401367 7.49791992 0.04239258 8.52124023 0.05102539 C9.51833008 0.05553711 10.51541992 0.06004883 11.54272461 0.06469727 C14.01478872 0.07652532 16.48673541 0.0930069 18.95874023 0.11352539 C23.47286511 8.88556806 27.54319448 17.81315742 31.45874023 26.86352539 C32.06394702 28.2556018 32.66950472 29.64752568 33.27539062 31.03930664 C34.53462421 33.9326068 35.79235617 36.82655279 37.04907227 39.72094727 C39.85539982 46.18061283 42.68182472 52.63148248 45.50708008 59.08288574 C46.36371092 61.03923583 47.21992746 62.99576651 48.07592773 64.95239258 C48.34656036 65.5707196 48.61719299 66.18904663 48.89602661 66.82611084 C49.69703486 68.65818714 50.49562429 70.49132037 51.29418945 72.32446289 C52.48416871 75.04728917 53.69887078 77.75793617 54.92407227 80.46508789 C55.41086205 81.55067993 55.41086205 81.55067993 55.90748596 82.65820312 C56.53357913 84.05365944 57.16541017 85.44656005 57.80381775 86.83642578 C59.32411021 90.24187221 59.95874023 92.30930742 59.95874023 96.11352539 C53.02874023 96.11352539 46.09874023 96.11352539 38.95874023 96.11352539 C34.79633853 86.69743946 34.79633853 86.69743946 32.7590332 82.08764648 C31.01488675 78.14121601 29.27035953 74.19495413 27.52563477 70.2487793 C23.7671817 61.74621333 20.00921499 53.24354246 16.28295898 44.72680664 C15.77289307 43.56205811 15.26282715 42.39730957 14.73730469 41.19726562 C13.82106089 39.10260705 12.9067471 37.00710289 11.99462891 34.91064453 C11.59864502 34.00564209 11.20266113 33.10063965 10.79467773 32.16821289 C10.46000488 31.39977051 10.12533203 30.63132812 9.78051758 29.83959961 C9.08271793 28.12600899 9.08271793 28.12600899 7.95874023 27.11352539 C-0.4281741 45.61080141 -8.74261331 64.13876351 -16.97290039 82.70629883 C-17.30448654 83.45403061 -17.63607269 84.20176239 -17.97770691 84.97215271 C-18.6009854 86.37792172 -19.22382204 87.78388674 -19.84614563 89.19007874 C-21.93023317 93.89147219 -21.93023317 93.89147219 -23.04125977 96.11352539 C-29.97125977 96.11352539 -36.90125977 96.11352539 -44.04125977 96.11352539 C-42.0667216 89.53173152 -40.12314016 83.58875632 -37.29125977 77.42602539 C-36.76193848 76.25414673 -36.76193848 76.25414673 -36.22192383 75.05859375 C-33.84776826 69.82019973 -31.40947877 64.61236663 -28.95922852 59.40917969 C-22.68060546 46.00314396 -16.79349069 32.40817372 -10.85766602 18.84790039 C-10.35267578 17.69531738 -9.84768555 16.54273438 -9.32739258 15.35522461 C-8.35964923 13.1442934 -7.39408413 10.93240722 -6.4309082 8.71948242 C-5.99939453 7.73318848 -5.56788086 6.74689453 -5.12329102 5.73071289 C-4.74406494 4.86043457 -4.36483887 3.99015625 -3.97412109 3.09350586 C-2.58434345 0.14372918 -2.58434345 0.14372918 0 0 Z " fill="#F0F3F7" transform="translate(999.041259765625,917.886474609375)"/>
<path d="M0 0 C1.13072182 0.00539291 1.13072182 0.00539291 2.2842865 0.01089478 C3.46956436 0.01067574 3.46956436 0.01067574 4.67878723 0.01045227 C7.30309245 0.0111516 9.92732759 0.01894489 12.55162048 0.02676392 C14.36623089 0.02862803 16.18084179 0.03005196 17.99545288 0.03105164 C22.78111653 0.03487737 27.56675003 0.04470813 32.35240173 0.05575562 C37.23195488 0.06596854 42.11151287 0.070549 46.99107361 0.07559204 C56.57246922 0.08633035 66.15383451 0.1039276 75.73521423 0.12442017 C75.73521423 6.39442017 75.73521423 12.66442017 75.73521423 19.12442017 C65.50521423 19.12442017 55.27521423 19.12442017 44.73521423 19.12442017 C44.73521423 44.53442017 44.73521423 69.94442017 44.73521423 96.12442017 C38.13521423 96.12442017 31.53521423 96.12442017 24.73521423 96.12442017 C24.73521423 70.71442017 24.73521423 45.30442017 24.73521423 19.12442017 C14.50521423 19.12442017 4.27521423 19.12442017 -6.26478577 19.12442017 C-6.28541077 16.17504517 -6.30603577 13.22567017 -6.32728577 10.18692017 C-6.33638977 9.25629761 -6.34549377 8.32567505 -6.35487366 7.36685181 C-6.35737122 6.63845093 -6.35986877 5.91005005 -6.36244202 5.15957642 C-6.36767883 4.41071167 -6.37291565 3.66184692 -6.37831116 2.89028931 C-6.1281136 -1.00149335 -3.21670232 0.00647496 0 0 Z " fill="#F0F3F6" transform="translate(745.2647857666016,917.8755798339844)"/>
<path d="M0 0 C6.6 0 13.2 0 20 0 C20 31.68 20 63.36 20 96 C13.4 96 6.8 96 0 96 C0 64.32 0 32.64 0 0 Z " fill="#F6F8FA" transform="translate(209,918)"/>
<path d="M0 0 C4.29 -0.0825 8.58 -0.165 13 -0.25 C14.33675781 -0.28641602 15.67351563 -0.32283203 17.05078125 -0.36035156 C24.18830282 -0.42659802 28.99960889 0.01175927 35 4 C38.05056084 8.28985119 38.55666413 11.80446811 38 17 C36.01155883 22.33739473 33.09332352 25.45333824 28 28 C25.89471067 28.08543895 23.78668843 28.10714725 21.6796875 28.09765625 C20.54772949 28.09515869 19.41577148 28.09266113 18.24951172 28.09008789 C16.80592285 28.08098389 15.36233398 28.07187988 13.875 28.0625 C9.29625 28.041875 4.7175 28.02125 0 28 C0 18.76 0 9.52 0 0 Z " fill="#090C16" transform="translate(871,937)"/>
<path d="M0 0 C3.67662843 1.35119383 6.79011785 3.01342667 10.0625 5.16015625 C11.01850098 5.78462646 11.97450195 6.40909668 12.95947266 7.05249023 C14.46453369 8.04744507 14.46453369 8.04744507 16 9.0625 C17.02786621 9.74062744 18.05573242 10.41875488 19.11474609 11.11743164 C21.15446361 12.46571676 23.19275039 13.81616922 25.22949219 15.16894531 C27.55012619 16.70267416 29.88265543 18.21321468 32.2265625 19.7109375 C39.47729956 24.41436042 44.23135284 28.69405851 47 37 C47.09058864 38.6046665 47.12375368 40.21287278 47.12304783 41.82009411 C47.12503888 42.81883499 47.12702993 43.81757588 47.12908131 44.84658164 C47.12471205 46.49685425 47.12471205 46.49685425 47.12025452 48.1804657 C47.12110894 49.3468414 47.12196337 50.51321709 47.12284368 51.71493751 C47.12420879 54.95762279 47.12107292 58.20026836 47.11606562 61.44294894 C47.11175547 64.93781639 47.11320795 68.43268191 47.1139679 71.92755127 C47.11449277 77.98438139 47.11134976 84.04120076 47.10573006 90.09802818 C47.09761015 98.85523142 47.09499933 107.61242944 47.09374207 116.36963604 C47.09155232 130.576912 47.08489433 144.78418223 47.07543945 158.99145508 C47.06626334 172.79418916 47.05918348 186.59692169 47.05493164 200.3996582 C47.05466892 201.25016377 47.05440619 202.10066934 47.05413551 202.97694781 C47.05283049 207.2435962 47.05156678 211.51024461 47.05032361 215.77689302 C47.0399534 251.18459944 47.02233718 286.59229919 47 322 C46.34 322.33 45.68 322.66 45 323 C44.99853479 322.09623608 44.99853479 322.09623608 44.99703997 321.1742143 C44.9387721 285.46720533 44.86497847 249.76026132 44.77101372 214.053328 C44.75974551 209.76626518 44.74860707 205.47920204 44.73754883 201.19213867 C44.73534514 200.33865902 44.73314146 199.48517937 44.730871 198.6058367 C44.69549546 184.78514157 44.67063277 170.9644465 44.64965298 157.14372288 C44.62789298 142.96312722 44.59484066 128.78259032 44.55129844 114.60204464 C44.52478516 105.85139114 44.50708741 97.10081087 44.50065396 88.35011918 C44.49539909 82.35001539 44.47917878 76.35000376 44.45433434 70.34994935 C44.44032271 66.88785667 44.43114724 63.42592896 44.43499184 59.96380615 C44.43663934 56.20882621 44.41998879 52.45435756 44.39872742 48.69944763 C44.40357499 47.60702631 44.40842257 46.51460499 44.41341704 45.38907999 C44.34452757 38.0300092 43.55123521 33.03390133 38.6875 27.25 C35.92807033 24.93977981 33.28287118 23.45057098 30 22 C30 21.34 30 20.68 30 20 C29.195625 19.814375 28.39125 19.62875 27.5625 19.4375 C23.59806935 17.83781746 21.00572535 15.75723504 17.71875 13.078125 C13.85136743 10.12202223 9.74990161 7.57538481 5.609375 5.02124023 C1.10254839 2.20509678 1.10254839 2.20509678 0 0 Z " fill="#0964CB" transform="translate(765,521)"/>
<path d="M0 0 C3 1 3 1 4.44213867 3.26904297 C4.9291626 4.25018066 5.41618652 5.23131836 5.91796875 6.2421875 C6.71557617 7.84126953 6.71557617 7.84126953 7.52929688 9.47265625 C8.07650391 10.59542969 8.62371094 11.71820312 9.1875 12.875 C9.74630859 13.99003906 10.30511719 15.10507812 10.88085938 16.25390625 C15 24.59277701 15 24.59277701 15 28 C5.76 28 -3.48 28 -13 28 C-9.625 17.875 -9.625 17.875 -7.51953125 13.96484375 C-6.85727539 12.72250977 -6.85727539 12.72250977 -6.18164062 11.45507812 C-5.72982422 10.62427734 -5.27800781 9.79347656 -4.8125 8.9375 C-4.34908203 8.07189453 -3.88566406 7.20628906 -3.40820312 6.31445312 C-2.27835675 4.20618308 -1.1422583 2.10156302 0 0 Z " fill="#00C3EB" transform="translate(1006,986)"/>
<path d="M0 0 C0.33 0 0.66 0 1 0 C1.90934958 27.27382925 2.06994146 54.53235713 1.99897289 81.8179822 C1.99217976 84.47568317 1.98612339 87.13338485 1.98029327 89.7910881 C1.94371546 106.32195675 1.8978637 122.85277908 1.82861328 139.38354492 C1.79413746 147.63552384 1.77031611 155.88746218 1.75840485 164.13950533 C1.75034472 169.31600641 1.72921571 174.49223127 1.69819999 179.66864312 C1.68223155 182.8591562 1.67877989 186.04958979 1.67897034 189.24013901 C1.67654604 190.71723017 1.66895669 192.19432318 1.65584183 193.67135811 C1.63870682 195.68403849 1.64180248 197.69686097 1.64596558 199.70960999 C1.64190138 200.83474534 1.63783718 201.9598807 1.63364983 203.11911106 C2.04208503 206.33094649 2.75570351 207.70365973 5 210 C7.00268744 210.61658303 7.00268744 210.61658303 9.125 210.625 C11.043125 210.810625 11.043125 210.810625 13 211 C13.33 211.66 13.66 212.32 14 213 C5.99173554 213.78512397 5.99173554 213.78512397 2 210.625 C-1.16484368 206.47114267 -1.14232649 203.58391916 -1.12698364 198.51994324 C-1.12854363 197.73928114 -1.13010362 196.95861904 -1.13171089 196.15430051 C-1.13571722 193.52366518 -1.13253251 190.89308699 -1.12939453 188.26245117 C-1.13074886 186.3817949 -1.13252896 184.5011389 -1.13470459 182.6204834 C-1.13927865 177.49798492 -1.13748856 172.3755065 -1.1343255 167.25300765 C-1.13179768 161.88988805 -1.13414101 156.52677018 -1.13571167 151.16365051 C-1.13753385 142.14400931 -1.13512759 133.12437629 -1.13037109 124.10473633 C-1.1249465 113.69850447 -1.12667777 103.29229226 -1.1321975 92.88606089 C-1.13674893 83.94576226 -1.13736871 75.00546952 -1.13475883 66.06517011 C-1.13320487 60.72883458 -1.13297769 55.39250825 -1.13629532 50.05617332 C-1.1392029 45.02720354 -1.13714569 39.99825879 -1.13140106 34.96929169 C-1.13008808 33.13159794 -1.13044247 31.29390206 -1.13266373 29.45620918 C-1.14349065 19.58130285 -0.97089729 9.83640951 0 0 Z " fill="#00BAF1" transform="translate(465,639)"/>
<path d="M0 0 C0.99 0.495 0.99 0.495 2 1 C2.66796875 3.73046875 2.66796875 3.73046875 3.1875 7.1875 C3.36667969 8.31542969 3.54585937 9.44335938 3.73046875 10.60546875 C4.00093515 14.0117775 3.5631671 16.64705045 3 20 C2.91151731 21.81667817 2.86661769 23.63590886 2.8613348 25.45473289 C2.85586036 26.51866465 2.85038591 27.5825964 2.84474558 28.67876852 C2.84376747 29.83635785 2.84278936 30.99394719 2.84178162 32.18661499 C2.83684364 33.42497435 2.83190566 34.66333371 2.82681805 35.93921912 C2.81412733 39.36894708 2.8058292 42.79863462 2.79939139 46.22837663 C2.79137138 49.92974898 2.77767913 53.63110089 2.76467896 57.3324585 C2.7429389 63.74281548 2.72478539 70.15317456 2.70907402 76.56354904 C2.68635287 85.83185217 2.65821316 95.10013263 2.62875474 104.3684165 C2.58110635 119.40592 2.53783471 134.44343277 2.49731445 149.48095703 C2.45794552 164.08773521 2.41651594 178.69450514 2.37231445 193.30126953 C2.36959018 194.20176585 2.36686591 195.10226218 2.36405908 196.03004627 C2.35037937 200.54761208 2.33665915 205.06517778 2.32291877 209.58274341 C2.20899724 247.05514515 2.10217833 284.52756449 2 322 C1.67 322 1.34 322 1 322 C0.67 215.74 0.34 109.48 0 0 Z " fill="#101E5E" transform="translate(661,468)"/>
<path d="M0 0 C0.33 0 0.66 0 1 0 C1.09347829 20.08855263 1.16399635 40.17706108 1.20724869 60.26578617 C1.2278661 69.59352455 1.25597101 78.92112771 1.30175781 88.2487793 C1.34165071 96.37961129 1.36743878 104.51034535 1.37635398 112.64127249 C1.38156458 116.94581218 1.39379419 121.25007173 1.42292023 125.55452156 C1.45012818 129.60845926 1.45843421 133.66200216 1.45243073 137.71602249 C1.45352857 139.20149444 1.46145064 140.68697999 1.4768219 142.17237282 C1.61420642 156.13678831 1.61420642 156.13678831 -3 162 C-4.87060547 163.48510742 -4.87060547 163.48510742 -6.9921875 164.41796875 C-7.8697168 164.81161621 -8.74724609 165.20526367 -9.65136719 165.61083984 C-10.75641602 166.0692627 -11.86146484 166.52768555 -13 167 C-13.70193481 167.29634338 -14.40386963 167.59268677 -15.1270752 167.89801025 C-21.10537952 170.42160419 -27.11255407 172.87163776 -33.125 175.3125 C-34.95847987 176.06018764 -36.7918145 176.80823153 -38.625 177.55664062 C-43.08166855 179.37520769 -47.5402782 181.18893415 -52 183 C-52.66 182.34 -53.32 181.68 -54 181 C-39.0420062 174.33706823 -39.0420062 174.33706823 -31.6875 171.5625 C-26.08184273 169.42868825 -20.49653814 167.25230097 -14.9375 165 C-14.11531982 164.67974854 -13.29313965 164.35949707 -12.44604492 164.02954102 C-7.76340107 162.10767258 -4.70333661 160.49385827 -2 156 C-0.87345111 152.6003525 -0.87927775 149.40245832 -0.88647461 145.83786011 C-0.8865451 144.57312866 -0.8866156 143.30839722 -0.88668823 142.00534058 C-0.89182192 140.60626189 -0.89704337 139.20718353 -0.90234375 137.80810547 C-0.90426317 136.33294729 -0.90572685 134.85778846 -0.9067688 133.38262939 C-0.90992874 130.2080146 -0.91619562 127.03342643 -0.92483521 123.85882187 C-0.93834945 118.84241687 -0.94424979 113.82602075 -0.94897461 108.80960083 C-0.96007599 98.16472205 -0.9796199 87.51986444 -1 76.875 C-1.02200344 65.37681571 -1.04258021 53.87864002 -1.05341816 42.38043892 C-1.05841142 37.39000153 -1.06828684 32.39960441 -1.08184814 27.40918326 C-1.08928691 24.31054233 -1.09261917 21.21190702 -1.0948143 18.11325836 C-1.09669245 16.67246544 -1.1003055 15.23167361 -1.10574722 13.79088974 C-1.11292246 11.82999544 -1.1134156 9.86908003 -1.11352539 7.90817261 C-1.115746 6.80905989 -1.11796661 5.70994717 -1.12025452 4.577528 C-1 2 -1 2 0 0 Z " fill="#00A8F6" transform="translate(610,637)"/>
<path d="M0 0 C2 2 2 2 2.23771572 4.14024162 C2.23197568 5.03287271 2.22623564 5.92550381 2.22032166 6.84518433 C2.21794243 8.38042755 2.21794243 8.38042755 2.21551514 9.94668579 C2.20361145 11.07400116 2.19170776 12.20131653 2.17944336 13.36279297 C2.17265312 15.1384967 2.17265312 15.1384967 2.16572571 16.95007324 C2.15186934 20.20227164 2.12934261 23.45428634 2.10399318 26.70641088 C2.08035221 30.10780108 2.07035526 33.50922352 2.05970764 36.91067505 C2.02559377 47.03631508 1.9729815 57.16184938 1.9105835 67.28735352 C1.86213792 75.15254727 1.82004429 83.01764464 1.79907519 90.88296616 C1.78943866 94.27020252 1.77369759 97.65718362 1.74394035 101.04430771 C1.71284949 104.82242259 1.69999108 108.60019511 1.69116211 112.37841797 C1.67723419 113.50168488 1.66330627 114.62495178 1.6489563 115.78225708 C1.65018997 116.81139221 1.65142365 117.84052734 1.6526947 118.90084839 C1.64733169 119.79423353 1.64196867 120.68761868 1.63644314 121.6080761 C2.07661021 124.5040361 3.0143863 125.87669579 5 128 C7.00268744 128.61658303 7.00268744 128.61658303 9.125 128.625 C11.043125 128.810625 11.043125 128.810625 13 129 C13.33 129.66 13.66 130.32 14 131 C5.99173554 131.78512397 5.99173554 131.78512397 2 128.625 C-1.26719943 124.33680075 -1.14580878 121.20654357 -1.1328125 115.9765625 C-1.13413177 115.11960785 -1.13545105 114.2626532 -1.1368103 113.37973022 C-1.13877127 110.46145352 -1.13225355 107.54326756 -1.125 104.625 C-1.12411377 103.61598633 -1.12322754 102.60697266 -1.12231445 101.56738281 C-1.08823688 67.71000121 -0.50158579 33.85300881 0 0 Z " fill="#00A2F4" transform="translate(465,721)"/>
<path d="M0 0 C0.33 0 0.66 0 1 0 C1.33 55.11 1.66 110.22 2 167 C1.01 167.33 0.02 167.66 -1 168 C-0.67 112.56 -0.34 57.12 0 0 Z " fill="#00DAE7" transform="translate(664,230)"/>
<path d="M0 0 C9.33080952 2.41676695 18.07423958 6.215524 26.9375 9.9375 C29.90362317 11.17897617 32.87103165 12.41731161 35.83984375 13.65234375 C36.54684418 13.94660248 37.2538446 14.24086121 37.98226929 14.54403687 C43.59537433 16.8654225 49.26073505 19.00882645 55 21 C55.495 20.505 55.495 20.505 56 20 C57.66617115 19.95936168 59.33388095 19.957279 61 20 C61 21.32 61 22.64 61 24 C55.22878372 24.36463124 51.29503286 23.27015577 46.0390625 20.96484375 C45.29022797 20.64850479 44.54139343 20.33216583 43.76986694 20.00624084 C41.38308116 18.99498411 39.00404886 17.96680771 36.625 16.9375 C35.06690495 16.27291814 33.50831418 15.60949721 31.94921875 14.94726562 C29.62280532 13.95879097 27.29735474 12.96840871 24.97515869 11.97006226 C21.02689779 10.27408982 17.06879297 8.61341481 13.08105469 7.01220703 C12.29435394 6.69514297 11.5076532 6.37807892 10.69711304 6.05140686 C9.19540007 5.44874193 7.69142471 4.85167586 6.18496704 4.26097107 C1.11040246 2.22080491 1.11040246 2.22080491 0 0 Z " fill="#106AE4" transform="translate(742,828)"/>
<path d="M0 0 C4.54551236 1.32018223 8.02470145 3.12033588 11.9296875 5.78125 C12.47769516 6.15124115 13.02570282 6.5212323 13.59031677 6.9024353 C14.75554859 7.689948 15.91873247 8.48049829 17.07998657 9.27386475 C20.09711981 11.33480389 23.12922205 13.37349872 26.16015625 15.4140625 C26.7540062 15.81464874 27.34785614 16.21523499 27.95970154 16.62796021 C33.83875005 20.58479689 39.82403957 24.34937727 45.86328125 28.0546875 C48.95776512 29.97380701 51.98204706 31.96368077 55 34 C54.34 34.66 53.68 35.32 53 36 C52.10933838 35.40429199 51.21867676 34.80858398 50.30102539 34.19482422 C40.712363 27.78822958 31.08403995 21.44401927 21.4375 15.125 C19.31733964 13.73562038 17.19729218 12.34606903 15.07740784 10.95626831 C13.77642813 10.10339674 12.47528316 9.25077719 11.17393494 8.39846802 C10.00695476 7.63364109 8.84076846 6.86760103 7.67550659 6.10015869 C6.5296823 5.34779606 5.38034853 4.60075846 4.22805786 3.8583374 C2.80185647 2.93096883 1.39833894 1.96887104 0 1 C0 0.67 0 0.34 0 0 Z " fill="#1A3597" transform="translate(665,456)"/>
<path d="M0 0 C0.99 0.33 1.98 0.66 3 1 C-0.33414017 4.93509531 -4.19954302 6.64677595 -8.87890625 8.53125 C-9.64621567 8.84904419 -10.41352509 9.16683838 -11.2040863 9.4942627 C-13.65315228 10.50555163 -16.10772915 11.50265133 -18.5625 12.5 C-20.18590367 13.16970869 -21.80895437 13.84027365 -23.43164062 14.51171875 C-31.55596833 17.86011457 -39.69769338 21.11304322 -48 24 C-48.33 23.34 -48.66 22.68 -49 22 C-34.0420062 15.33706823 -34.0420062 15.33706823 -26.6875 12.5625 C-20.99962672 10.41071944 -15.3674835 8.14070625 -9.75 5.8125 C-8.90268311 5.46711182 -8.05536621 5.12172363 -7.18237305 4.76586914 C-6.39515869 4.43707764 -5.60794434 4.10828613 -4.796875 3.76953125 C-4.08885742 3.47667236 -3.38083984 3.18381348 -2.65136719 2.88208008 C-0.81082267 2.10350174 -0.81082267 2.10350174 0 0 Z " fill="#019CEA" transform="translate(605,796)"/>
<path d="M0 0 C3.67662843 1.35119383 6.79011785 3.01342667 10.0625 5.16015625 C11.01850098 5.78462646 11.97450195 6.40909668 12.95947266 7.05249023 C14.46453369 8.04744507 14.46453369 8.04744507 16 9.0625 C17.02786621 9.74062744 18.05573242 10.41875488 19.11474609 11.11743164 C21.15446361 12.46571676 23.19275039 13.81616922 25.22949219 15.16894531 C27.55012619 16.70267416 29.88265543 18.21321468 32.2265625 19.7109375 C38.40038047 23.71553038 42.88962648 27.1811042 46 34 C45.505 34.99 45.505 34.99 45 36 C44.6596875 35.40832031 44.319375 34.81664062 43.96875 34.20703125 C40.80145011 29.04332159 38.00876079 25.82751288 32.63671875 22.97265625 C31 22 31 22 30 20 C29.175 19.773125 28.35 19.54625 27.5 19.3125 C23.50347823 17.81380433 20.99867013 15.75148456 17.71875 13.078125 C13.85136743 10.12202223 9.74990161 7.57538481 5.609375 5.02124023 C1.10254839 2.20509678 1.10254839 2.20509678 0 0 Z " fill="#156AEA" transform="translate(765,521)"/>
<path d="M0 0 C0.66 0.33 1.32 0.66 2 1 C1.67 21.46 1.34 41.92 1 63 C-2.63 63 -6.26 63 -10 63 C-10 62.67 -10 62.34 -10 62 C-8.02 62 -6.04 62 -4 62 C-3.34 60.68 -2.68 59.36 -2 58 C-1.67 58 -1.34 58 -1 58 C-0.67 38.86 -0.34 19.72 0 0 Z " fill="#ECEEEE" transform="translate(285,951)"/>
<path d="M0 0 C0.66 0.33 1.32 0.66 2 1 C-0.21827033 3.43213254 -2.39144006 4.90098303 -5.30859375 6.41015625 C-6.13810547 6.84263672 -6.96761719 7.27511719 -7.82226562 7.72070312 C-8.68529297 8.16349609 -9.54832031 8.60628906 -10.4375 9.0625 C-11.29666016 9.50916016 -12.15582031 9.95582031 -13.04101562 10.41601562 C-15.35702365 11.61803996 -17.6757504 12.81399683 -20 14 C-20.669104 14.39759521 -21.33820801 14.79519043 -22.02758789 15.20483398 C-24.43612848 16.17582256 -25.59653321 15.858381 -28 15 C-27.18732666 14.58113525 -26.37465332 14.16227051 -25.53735352 13.73071289 C-22.53054459 12.17981889 -19.52462078 10.62723586 -16.51928711 9.07348633 C-15.21690545 8.40060268 -13.91417188 7.72839972 -12.61108398 7.05688477 C-10.74110062 6.09308581 -8.87238509 5.12686803 -7.00390625 4.16015625 C-5.31503296 3.28822632 -5.31503296 3.28822632 -3.59204102 2.39868164 C-1.13968101 1.23518039 -1.13968101 1.23518039 0 0 Z " fill="#03D6DD" transform="translate(585,257)"/>
<path d="M0 0 C0.99 0.495 0.99 0.495 2 1 C2.66796875 3.73046875 2.66796875 3.73046875 3.1875 7.1875 C3.36667969 8.31542969 3.54585937 9.44335938 3.73046875 10.60546875 C4.00321727 14.04051891 3.608575 16.62038019 3 20 C2.73336843 23.62147343 2.5874359 27.24704291 2.4375 30.875 C2.39431641 31.84953125 2.35113281 32.8240625 2.30664062 33.828125 C2.20117726 36.21862802 2.09905825 38.60922444 2 41 C1.67 41 1.34 41 1 41 C0.67 27.47 0.34 13.94 0 0 Z " fill="#122061" transform="translate(661,468)"/>
<path d="M0 0 C0.66 0 1.32 0 2 0 C3.51220703 1.74414062 3.51220703 1.74414062 5.2578125 4.15625 C6.19560547 5.44208984 6.19560547 5.44208984 7.15234375 6.75390625 C7.80332031 7.66011719 8.45429687 8.56632813 9.125 9.5 C9.78371094 10.40621094 10.44242188 11.31242188 11.12109375 12.24609375 C12.75324326 14.49325613 14.37920016 16.74464472 16 19 C15.34 19.66 14.68 20.32 14 21 C11.84350339 18.25821331 9.70174664 15.50526007 7.5625 12.75 C6.95083984 11.97269531 6.33917969 11.19539062 5.70898438 10.39453125 C5.12568359 9.64042969 4.54238281 8.88632812 3.94140625 8.109375 C3.13231812 7.07248535 3.13231812 7.07248535 2.30688477 6.01464844 C0.98676808 3.97960213 0.43001306 2.37088284 0 0 Z " fill="#14151A" transform="translate(671,991)"/>
<path d="M0 0 C2.69600373 0.9885347 3.80558649 1.65977636 5.25 4.1875 C6.68315468 9.56183004 6.42751376 13.99325287 4 19 C3.34 18.67 2.68 18.34 2 18 C2.02320313 17.20335937 2.04640625 16.40671875 2.0703125 15.5859375 C2.23848592 7.605026 2.23848592 7.605026 0 0 Z " fill="#141518" transform="translate(903,940)"/>
<path d="M0 0 C-1.34518723 4.0355617 -3.12572816 4.43585483 -6.8125 6.4375 C-10.79633285 8.60652958 -13.94222595 10.63126588 -17 14 C-17 11.875 -17 11.875 -16 9 C-11.99383969 5.17550328 -5.70584815 0 0 0 Z " fill="#02D3D8" transform="translate(484,312)"/>
<path d="M0 0 C0 0.99 0 1.98 0 3 C-9.24 3 -18.48 3 -28 3 C-28 2.67 -28 2.34 -28 2 C-22.67511249 1.32382381 -17.57292751 0.955994 -12.2109375 1.03125 C-8.10220434 0.97317603 -4.09492305 0 0 0 Z " fill="#00D6EE" transform="translate(1021,1011)"/>
<path d="M0 0 C5.28 0 10.56 0 16 0 C16.66 1.32 17.32 2.64 18 4 C17.01 4 16.02 4 15 4 C14.67 3.67 14.34 3.34 14 3 C11.81360547 2.92741054 9.62499611 2.91626217 7.4375 2.9375 C6.23996094 2.94652344 5.04242187 2.95554687 3.80859375 2.96484375 C2.41833984 2.98224609 2.41833984 2.98224609 1 3 C0.67 2.01 0.34 1.02 0 0 Z " fill="#0D0F12" transform="translate(872,983)"/>
<path d="M0 0 C1.49828872 3.88235819 0.43110582 6.43449288 -0.9375 10.25 C-1.31777344 11.32765625 -1.69804688 12.4053125 -2.08984375 13.515625 C-2.39019531 14.33546875 -2.69054687 15.1553125 -3 16 C-3.66 16 -4.32 16 -5 16 C-5 16.66 -5 17.32 -5 18 C-5.66 18 -6.32 18 -7 18 C-5.06375702 11.79522136 -2.74390859 5.89174281 0 0 Z " fill="#1D1F23" transform="translate(996,967)"/>
<path d="M0 0 C0.33 0 0.66 0 1 0 C0.53798225 5.35940594 -0.10938399 9.33054337 -3 14 C-3.99 14.66 -4.98 15.32 -6 16 C-4.43551329 10.3856009 -2.83604813 5.13189662 0 0 Z " fill="#1F2127" transform="translate(455,989)"/>
<path d="M0 0 C4.29 0 8.58 0 13 0 C13 0.33 13 0.66 13 1 C12.28972656 1.06058594 11.57945312 1.12117187 10.84765625 1.18359375 C9.92855469 1.26738281 9.00945313 1.35117187 8.0625 1.4375 C7.14597656 1.51871094 6.22945312 1.59992187 5.28515625 1.68359375 C3.03840268 1.76044976 3.03840268 1.76044976 2 3 C1.76472227 5.34987262 1.58613583 7.70556039 1.4375 10.0625 C1.35371094 11.35285156 1.26992188 12.64320313 1.18359375 13.97265625 C1.12300781 14.97167969 1.06242188 15.97070312 1 17 C0.67 17 0.34 17 0 17 C0 11.39 0 5.78 0 0 Z " fill="#0A0E17" transform="translate(537,977)"/>
<path d="M0 0 C0.66 0.33 1.32 0.66 2 1 C1.01 4.3 0.02 7.6 -1 11 C-1.66 11 -2.32 11 -3 11 C-3 11.66 -3 12.32 -3 13 C-3.66 13 -4.32 13 -5 13 C-4.54554036 11.58208592 -4.08625056 10.16571954 -3.625 8.75 C-3.24214844 7.56664062 -3.24214844 7.56664062 -2.8515625 6.359375 C-2.04826333 4.13372042 -1.10288338 2.09068328 0 0 Z " fill="#191A1F" transform="translate(1002,954)"/>
<path d="M0 0 C3 1 3 1 4.25 2.8125 C5.11637742 5.33943414 4.88492145 6.52221994 4 9 C3.67 7.68 3.34 6.36 3 5 C1.02 5.99 1.02 5.99 -1 7 C-1.625 5.1875 -1.625 5.1875 -2 3 C-1.34 2.01 -0.68 1.02 0 0 Z " fill="#02CFEE" transform="translate(1006,986)"/>
<path d="M0 0 C-3.12762471 2.52615842 -6.37850388 4.26798012 -10 6 C-10.99 6.495 -10.99 6.495 -12 7 C-12.99 6.34 -13.98 5.68 -15 5 C-13.06891037 3.96709159 -11.129882 2.94901328 -9.1875 1.9375 C-8.10855469 1.36902344 -7.02960938 0.80054688 -5.91796875 0.21484375 C-3 -1 -3 -1 0 0 Z " fill="#01E1E6" transform="translate(499,306)"/>
<path d="M0 0 C0.33 0 0.66 0 1 0 C1.33 5.94 1.66 11.88 2 18 C1.01 17.67 0.02 17.34 -1 17 C-0.67 11.39 -0.34 5.78 0 0 Z " fill="#060709" transform="translate(737,919)"/>
<path d="M0 0 C4.3600884 0.39637167 7.46124601 1.39797501 11 4 C11 4.66 11 5.32 11 6 C9.37276701 5.54965877 7.74826336 5.08944646 6.125 4.625 C5.22007812 4.36976563 4.31515625 4.11453125 3.3828125 3.8515625 C1 3 1 3 -1 1 C-0.67 0.67 -0.34 0.34 0 0 Z " fill="#1D1E23" transform="translate(904,917)"/>
<path d="M0 0 C2 3 2 3 3.125 5.125 C6.01852525 8.01852525 8.98631522 7.61157889 13 8 C13.33 8.66 13.66 9.32 14 10 C9.11893494 10.47853579 6.04070913 10.74336366 1.9375 7.8125 C-0.13037986 4.81073891 -0.50709429 3.54966001 0 0 Z " fill="#0296EB" transform="translate(465,842)"/>
<path d="M0 0 C3 3.75 3 3.75 3 6 C2.360625 6.12375 1.72125 6.2475 1.0625 6.375 C0.0415625 6.684375 0.0415625 6.684375 -1 7 C-1.33 7.66 -1.66 8.32 -2 9 C-2.66 9 -3.32 9 -4 9 C-2.94124926 5.59687262 -1.99097846 2.98646769 0 0 Z " fill="#1F2023" transform="translate(1007,944)"/>
<path d="M0 0 C0.66 0 1.32 0 2 0 C3.5078125 1.96875 3.5078125 1.96875 5.125 4.5 C5.66382813 5.3353125 6.20265625 6.170625 6.7578125 7.03125 C7.16773438 7.6809375 7.57765625 8.330625 8 9 C7.34 9.66 6.68 10.32 6 11 C4.9944239 9.54550599 3.99569565 8.08627557 3 6.625 C2.443125 5.81289063 1.88625 5.00078125 1.3125 4.1640625 C0 2 0 2 0 0 Z " fill="#1D1F27" transform="translate(671,991)"/>
<path d="M0 0 C3.28788824 3.11016455 5.83735988 6.01618925 8 10 C7.01 10 6.02 10 5 10 C3.61328125 8.57421875 3.61328125 8.57421875 2.3125 6.6875 C1.87550781 6.07261719 1.43851563 5.45773437 0.98828125 4.82421875 C0 3 0 3 0 0 Z " fill="#191A20" transform="translate(893,993)"/>
<path d="M0 0 C0.66 0 1.32 0 2 0 C1.54917531 1.46067199 1.08906463 2.91848032 0.625 4.375 C0.36976563 5.18710937 0.11453125 5.99921875 -0.1484375 6.8359375 C-1 9 -1 9 -3 11 C-4 9 -4 9 -3.4765625 7.08984375 C-3.05503906 6.02443359 -3.05503906 6.02443359 -2.625 4.9375 C-2.34914063 4.22464844 -2.07328125 3.51179687 -1.7890625 2.77734375 C-1 1 -1 1 0 0 Z " fill="#101014" transform="translate(964,986)"/>
<path d="M0 0 C1.25 1.5625 1.25 1.5625 2 4 C0.93237266 6.57001015 -0.46544943 8.6530403 -2 11 C-2.66 11 -3.32 11 -4 11 C-2.7874262 7.27566618 -1.49140021 3.62197194 0 0 Z " fill="#E0E1E4" transform="translate(979,957)"/>
<path d="M0 0 C1.65 0 3.3 0 5 0 C5 0.66 5 1.32 5 2 C6.98 2 8.96 2 11 2 C11 2.33 11 2.66 11 3 C7.04 3 3.08 3 -1 3 C-0.67 2.01 -0.34 1.02 0 0 Z " fill="#0A0C10" transform="translate(395,914)"/>
<path d="M0 0 C2.64 0.33 5.28 0.66 8 1 C8.33 3.31 8.66 5.62 9 8 C7.68388323 7.04663979 6.37221039 6.08714226 5.0625 5.125 C4.33160156 4.59132813 3.60070312 4.05765625 2.84765625 3.5078125 C1 2 1 2 0 0 Z " fill="#0E215B" transform="translate(648,452)"/>
<path d="M0 0 C-3.95523655 2.75668002 -7.22423661 3.5317879 -12 4 C-4.75 -1.69642857 -4.75 -1.69642857 0 0 Z " fill="#01DDE2" transform="translate(513,299)"/>
<path d="M0 0 C0.66 0.66 1.32 1.32 2 2 C1.77256695 4.95662966 1.38764062 6.55033688 -0.5625 8.8125 C-1.036875 9.204375 -1.51125 9.59625 -2 10 C-3.39195915 5.82412255 -1.82323219 3.86525224 0 0 Z " fill="#1F2126" transform="translate(929,958)"/>
<path d="M0 0 C4 1.33333333 8 2.66666667 12 4 C12 4.66 12 5.32 12 6 C10.55903414 5.57405412 9.12231288 5.13373367 7.6875 4.6875 C6.88699219 4.44386719 6.08648438 4.20023438 5.26171875 3.94921875 C2.90035427 2.95817977 1.66120007 1.91925057 0 0 Z " fill="#1745D1" transform="translate(667,797)"/>
<path d="M0 0 C0 0.66 0 1.32 0 2 C-5.17578125 5.22265625 -5.17578125 5.22265625 -7 6 C-7.99 5.67 -8.98 5.34 -10 5 C-3.63636364 0 -3.63636364 0 0 0 Z " fill="#04CED5" transform="translate(533,286)"/>
<path d="M0 0 C0.66 1.32 1.32 2.64 2 4 C-2.29 4 -6.58 4 -11 4 C-11 3.67 -11 3.34 -11 3 C-10.28972656 2.86722656 -9.57945312 2.73445312 -8.84765625 2.59765625 C-7.92855469 2.42105469 -7.00945313 2.24445312 -6.0625 2.0625 C-4.68771484 1.80146484 -4.68771484 1.80146484 -3.28515625 1.53515625 C-1.04710156 1.22285012 -1.04710156 1.22285012 0 0 Z " fill="#EDEFF0" transform="translate(639,1010)"/>
<path d="M0 0 C0.99 0.33 1.98 0.66 3 1 C0.16569547 4.2542015 -1.68607774 5.5206753 -6 6 C-6 5.34 -6 4.68 -6 4 C-4.7934375 3.566875 -4.7934375 3.566875 -3.5625 3.125 C-0.8673532 2.26737432 -0.8673532 2.26737432 0 0 Z " fill="#0090DF" transform="translate(605,796)"/>
<path d="M0 0 C0.33 0 0.66 0 1 0 C1.12375 0.94875 1.2475 1.8975 1.375 2.875 C1.71687177 6.08667191 1.71687177 6.08667191 4 8 C2.02 8 0.04 8 -2 8 C-1.34 5.36 -0.68 2.72 0 0 Z " fill="#E6E7E9" transform="translate(957,1006)"/>
<path d="M0 0 C1.65 1.65 3.3 3.3 5 5 C4.34 5.66 3.68 6.32 3 7 C2.01 7 1.02 7 0 7 C0 4.69 0 2.38 0 0 Z " fill="#121317" transform="translate(642,953)"/>
<path d="M0 0 C0.99 0 1.98 0 3 0 C3 0.66 3 1.32 3 2 C1.04072937 3.7143618 -0.95880212 5.38405168 -3 7 C-2.25 2.25 -2.25 2.25 0 0 Z " fill="#01E0E7" transform="translate(470,319)"/>
<path d="M0 0 C2 3.875 2 3.875 2 5 C-0.97 5 -3.94 5 -7 5 C-7 4.67 -7 4.34 -7 4 C-5.35 4 -3.7 4 -2 4 C-1.34 2.68 -0.68 1.36 0 0 Z " fill="#EEEFF0" transform="translate(227,1009)"/>
<path d="M0 0 C1.2065625 0.0309375 1.2065625 0.0309375 2.4375 0.0625 C2.4375 1.3825 2.4375 2.7025 2.4375 4.0625 C1.1175 4.0625 -0.2025 4.0625 -1.5625 4.0625 C-1.5625 3.4025 -1.5625 2.7425 -1.5625 2.0625 C-2.2225 1.7325 -2.8825 1.4025 -3.5625 1.0625 C-2.5625 0.0625 -2.5625 0.0625 0 0 Z " fill="#136FF8" transform="translate(800.5625,847.9375)"/>
<path d="M0 0 C0.66 0 1.32 0 2 0 C1.6875 3.375 1.6875 3.375 1 7 C0.01 7.66 -0.98 8.32 -2 9 C-1.34 6.03 -0.68 3.06 0 0 Z " fill="#00212B" transform="translate(666,393)"/>
<path d="M0 0 C-1.0975223 2.99324263 -1.67682892 3.84610901 -4.625 5.25 C-5.40875 5.4975 -6.1925 5.745 -7 6 C-7 5.01 -7 4.02 -7 3 C-2.77777778 0 -2.77777778 0 0 0 Z " fill="#03141F" transform="translate(541,279)"/>
<path d="M0 0 C0.625 1.8125 0.625 1.8125 1 4 C0.01 5.485 0.01 5.485 -1 7 C-1.66 5.35 -2.32 3.7 -3 2 C-2.01 1.34 -1.02 0.68 0 0 Z " fill="#07080D" transform="translate(954,1009)"/>
<path d="M0 0 C1.5 1.375 1.5 1.375 3 3 C3 3.66 3 4.32 3 5 C1.02 5 -0.96 5 -3 5 C-2.67 4.01 -2.34 3.02 -2 2 C-1.34 2 -0.68 2 0 2 C0 1.34 0 0.68 0 0 Z " fill="#E2E3E4" transform="translate(929,1009)"/>
<path d="M0 0 C3.73639216 1.24546405 4.18756513 2.63404953 6 6 C5.01 6 4.02 6 3 6 C0 2.66666667 0 2.66666667 0 0 Z " fill="#18191E" transform="translate(663,981)"/>
<path d="M0 0 C0.33 0 0.66 0 1 0 C1 3.63 1 7.26 1 11 C0.01 11.495 0.01 11.495 -1 12 C-1.33 10.68 -1.66 9.36 -2 8 C-1.34 8 -0.68 8 0 8 C0 5.36 0 2.72 0 0 Z " fill="#090C13" transform="translate(331,964)"/>
</svg>
